<svg width="260" height="260" viewBox="0 0 260 260" fill="none" xmlns="http://www.w3.org/2000/svg">
<g filter="url(#filter0_i_0_1)">
<circle cx="130" cy="130" r="130" fill="#0C0C0C" fill-opacity="0.83"/>
</g>
<circle cx="130" cy="130" r="64" fill="#B02D32" stroke="#40343A" stroke-width="4"/>
<circle cx="130.5" cy="130.5" r="12" fill="#605B5E" stroke="#40343A"/>
<circle cx="130" cy="130" r="6" fill="#D9D9D9"/>
<path d="M89.6111 105.259C89.4727 105.484 89.301 105.618 89.096 105.661C88.8843 105.7 88.6558 105.644 88.4106 105.492C88.1858 105.354 88.0418 105.176 87.9784 104.958C87.9151 104.741 87.9485 104.527 88.0786 104.315C88.217 104.091 88.3921 103.959 88.6039 103.92C88.8088 103.877 89.0339 103.931 89.2791 104.082C89.5039 104.221 89.6479 104.399 89.7113 104.616C89.7746 104.834 89.7412 105.048 89.6111 105.259Z" fill="#F2F3F2"/>
<path d="M97.8839 99.4691C97.5797 99.8088 97.2521 100.085 96.9012 100.296C96.5556 100.502 96.1866 100.645 95.7943 100.723C95.4014 100.79 94.9882 100.795 94.5546 100.74L94.3873 99.3979C95.066 99.4796 95.6059 99.4584 96.0069 99.3344C96.408 99.2103 96.7741 98.9636 97.105 98.5941C97.3078 98.3677 97.4562 98.1301 97.5502 97.8813C97.6442 97.6325 97.6766 97.3985 97.6476 97.1791C97.6185 96.9598 97.5235 96.778 97.3626 96.6339C97.2554 96.5378 97.1381 96.465 97.0107 96.4153C96.8833 96.3657 96.7462 96.3449 96.5994 96.3529C96.4578 96.3551 96.3009 96.3863 96.1286 96.4468C95.9617 96.5013 95.785 96.5847 95.5985 96.6969C95.4061 96.8038 95.2013 96.9425 94.984 97.1131C94.6302 97.3762 94.293 97.5788 93.9722 97.7211C93.6514 97.8634 93.3385 97.9429 93.0335 97.9597C92.7285 97.9764 92.44 97.9328 92.168 97.8288C91.8901 97.7194 91.623 97.55 91.3667 97.3205C91.1165 97.0963 90.9321 96.8345 90.8137 96.5351C90.7006 96.2297 90.652 95.9123 90.6678 95.5828C90.6831 95.242 90.7664 94.9032 90.9179 94.5663C91.0634 94.224 91.2722 93.9009 91.5444 93.597C91.8327 93.2753 92.1386 93.0177 92.4622 92.8242C92.7859 92.6308 93.1245 92.5046 93.4782 92.4455C93.8259 92.381 94.1803 92.387 94.5414 92.4635L94.6033 93.7433C94.2999 93.6863 94.0159 93.6736 93.7514 93.7052C93.4809 93.7314 93.2328 93.8045 93.0071 93.9245C92.7755 94.0392 92.5689 94.1979 92.3874 94.4005C92.1793 94.6329 92.0335 94.8675 91.9502 95.1044C91.867 95.3412 91.8455 95.569 91.8858 95.7878C91.9256 95.9952 92.0318 96.1763 92.2046 96.3311C92.3298 96.4432 92.4673 96.5235 92.6173 96.5719C92.7613 96.6149 92.9177 96.6262 93.0865 96.6056C93.2548 96.5737 93.4464 96.5036 93.6614 96.3955C93.8704 96.282 94.1029 96.1304 94.3587 95.9408C94.7238 95.6771 95.0777 95.4678 95.4204 95.313C95.7572 95.1529 96.0802 95.0501 96.3893 95.0048C96.6984 94.9595 96.9853 94.9749 97.2501 95.051C97.5202 95.1211 97.7626 95.2522 97.9771 95.4444C98.3763 95.802 98.6392 96.204 98.7657 96.6502C98.8922 97.0965 98.8838 97.5615 98.7405 98.0453C98.5911 98.5238 98.3056 98.9984 97.8839 99.4691Z" fill="#F2F3F2"/>
<path d="M101.828 95.2452L96.7805 88.5306L97.7973 87.7663L103.236 89.9084L102.739 90.2666L102.229 84.4351L103.188 83.7141L108.235 90.4286L107.199 91.2074L105.13 88.4544C104.697 87.8789 104.321 87.3513 104 86.8716C103.686 86.3872 103.394 85.8915 103.123 85.3846L103.524 85.6385L103.88 90.6854L103.247 91.1612L98.5934 89.4047L98.4033 88.9321C98.7957 89.3076 99.1754 89.7128 99.5422 90.1476C99.9107 90.5712 100.328 91.0932 100.794 91.7135L102.864 94.4665L101.828 95.2452Z" fill="#F2F3F2"/>
<path d="M110.036 89.444L109.473 80.4541L110.672 79.9016L117.12 86.1789L115.867 86.7566L112.003 82.9613C111.958 82.9205 111.857 82.8171 111.702 82.6511C111.553 82.4817 111.384 82.2956 111.193 82.0926C111.003 81.8897 110.83 81.7053 110.674 81.5392C110.515 81.3659 110.411 81.2553 110.362 81.2072L110.608 81.0808C110.621 81.2244 110.639 81.4057 110.66 81.6247C110.689 81.8404 110.716 82.0703 110.74 82.3145C110.772 82.5554 110.799 82.7853 110.821 83.0043C110.839 83.2161 110.855 83.3938 110.868 83.5374L111.235 88.8915L110.036 89.444ZM110.47 86.945L110.383 85.6107L113.849 84.0133L114.873 84.9156L110.47 86.945Z" fill="#F2F3F2"/>
<path d="M119.282 85.5879L117.41 77.3994L120.896 76.6021C121.364 76.4951 121.819 76.514 122.263 76.6588C122.712 76.794 123.099 77.0337 123.424 77.3779C123.747 77.7143 123.965 78.1282 124.078 78.6195C124.179 79.0641 124.157 79.5041 124.01 79.9398C123.864 80.3754 123.622 80.7548 123.286 81.0779C122.948 81.3933 122.541 81.6053 122.065 81.7141L119.842 82.2224L120.546 85.299L119.282 85.5879ZM124.149 84.475L121.221 81.2547L122.453 80.6653L125.684 84.1363L124.149 84.475ZM119.564 81.0059L121.904 80.4708C122.13 80.4191 122.32 80.3181 122.474 80.1679C122.627 80.0099 122.732 79.8218 122.789 79.6037C122.844 79.3777 122.843 79.1439 122.788 78.9021C122.726 78.6292 122.605 78.4065 122.426 78.234C122.253 78.052 122.036 77.9292 121.776 77.8658C121.523 77.8005 121.252 77.8009 120.963 77.8669L118.951 78.327L119.564 81.0059Z" fill="#F2F3F2"/>
<path d="M129.995 83.9422L129.842 76.7918L127.491 76.8419L127.464 75.5942L133.535 75.4648L133.561 76.7125L131.138 76.7642L131.29 83.9146L129.995 83.9422Z" fill="#F2F3F2"/>
<path d="M135.543 84.1307L135.735 82.9461L137.074 83.163L138.033 77.2402L136.695 77.0234L136.887 75.8388L140.843 76.4799L140.651 77.6644L139.312 77.4475L138.353 83.3703L139.691 83.5872L139.499 84.7717L135.543 84.1307Z" fill="#F2F3F2"/>
<path d="M145.017 86.6224C144.59 86.4617 144.215 86.2561 143.89 86.0057C143.573 85.7581 143.307 85.4656 143.092 85.1282C142.887 84.7862 142.733 84.403 142.627 83.9787L143.818 83.3371C143.987 83.9993 144.202 84.4949 144.463 84.8239C144.724 85.1529 145.087 85.4048 145.551 85.5796C145.835 85.6867 146.11 85.739 146.376 85.7366C146.642 85.7341 146.872 85.6797 147.066 85.5732C147.26 85.4667 147.395 85.3124 147.471 85.1102C147.522 84.9755 147.548 84.8397 147.548 84.703C147.548 84.5663 147.518 84.431 147.457 84.297C147.404 84.1659 147.318 84.0309 147.199 83.8922C147.088 83.7563 146.946 83.6217 146.774 83.4885C146.605 83.3478 146.401 83.2071 146.164 83.0663C145.79 82.8318 145.479 82.5907 145.231 82.3432C144.982 82.0957 144.795 81.8328 144.669 81.5545C144.542 81.2762 144.479 80.9915 144.477 80.7003C144.479 80.4016 144.54 80.0913 144.661 79.7694C144.779 79.4549 144.957 79.1883 145.193 78.9695C145.437 78.7536 145.715 78.5934 146.028 78.4889C146.351 78.3798 146.697 78.3348 147.066 78.3541C147.438 78.3658 147.815 78.4436 148.196 78.5873C148.601 78.7396 148.952 78.9315 149.249 79.1632C149.546 79.3949 149.787 79.6648 149.97 79.9731C150.156 80.274 150.278 80.6065 150.338 80.9708L149.167 81.4917C149.11 81.1883 149.02 80.919 148.894 80.6838C148.772 80.4411 148.614 80.2363 148.421 80.0694C148.23 79.895 148.007 79.7598 147.753 79.664C147.461 79.554 147.189 79.5031 146.938 79.5112C146.687 79.5193 146.467 79.5817 146.278 79.6985C146.099 79.8106 145.968 79.9753 145.887 80.1924C145.827 80.3496 145.802 80.5069 145.812 80.6642C145.824 80.814 145.87 80.9639 145.95 81.1138C146.041 81.2591 146.175 81.4123 146.354 81.5736C146.535 81.7274 146.761 81.8892 147.03 82.0591C147.408 82.304 147.731 82.5582 148 82.8216C148.271 83.0776 148.484 83.3415 148.638 83.6132C148.792 83.8849 148.881 84.158 148.906 84.4324C148.939 84.7096 148.904 84.9829 148.803 85.2525C148.614 85.7541 148.334 86.1446 147.964 86.4241C147.594 86.7036 147.157 86.864 146.654 86.9055C146.154 86.9395 145.609 86.8451 145.017 86.6224Z" fill="#F2F3F2"/>
<path d="M149.456 88.3528L156.769 83.0946L157.875 83.8158L155.989 92.6148L154.833 91.8607L155.992 86.5704C156.002 86.5104 156.036 86.3703 156.094 86.1501C156.159 85.9342 156.226 85.6916 156.297 85.4225C156.367 85.1533 156.431 84.9085 156.489 84.6883C156.551 84.4614 156.59 84.3145 156.604 84.2478L156.842 84.3886C156.728 84.4762 156.583 84.5875 156.409 84.7224C156.242 84.8616 156.062 85.0065 155.868 85.1571C155.681 85.3121 155.5 85.457 155.326 85.5919C155.157 85.72 155.015 85.8279 154.9 85.9156L150.561 89.0741L149.456 88.3528ZM151.803 87.3909L152.887 86.608L156.083 88.693L155.863 90.0399L151.803 87.3909Z" fill="#F2F3F2"/>
<path d="M157.759 94.2583L163.75 88.3707L164.566 89.201L163.261 97.6837L163.05 97.6224C163.17 97.4594 163.304 97.288 163.453 97.1083C163.607 96.923 163.77 96.7292 163.942 96.5271C164.125 96.325 164.316 96.1146 164.516 95.8957C164.727 95.6769 164.947 95.4497 165.175 95.2141C165.404 94.9785 165.643 94.7373 165.894 94.4906L167.863 92.5561L168.771 93.4805L162.78 99.3681L161.947 98.5207L163.131 90.2746L163.343 90.251C163.023 90.6216 162.749 90.936 162.52 91.1942C162.303 91.4525 162.115 91.6715 161.955 91.8511C161.806 92.0309 161.68 92.1768 161.577 92.2891C161.48 92.3957 161.398 92.4827 161.329 92.55C161.266 92.623 161.209 92.6847 161.158 92.7352L158.667 95.1827L157.759 94.2583Z" fill="#F2F3F2"/>
<path d="M168.575 102.307C168.427 102.088 168.375 101.877 168.42 101.672C168.471 101.463 168.616 101.278 168.854 101.116C169.073 100.968 169.294 100.909 169.519 100.941C169.743 100.972 169.925 101.09 170.064 101.296C170.212 101.514 170.261 101.728 170.209 101.937C170.164 102.141 170.023 102.324 169.785 102.486C169.566 102.634 169.345 102.693 169.12 102.661C168.896 102.63 168.714 102.512 168.575 102.307Z" fill="#F2F3F2"/>
<path d="M106.392 108V105.2H108.156V105.616H106.824V107.584H108.156V108H106.392ZM106.588 106.772V106.356H107.936V106.772H106.588ZM108.849 108V105.2H109.945C110.145 105.2 110.325 105.233 110.485 105.3C110.648 105.367 110.786 105.463 110.901 105.588C111.016 105.713 111.104 105.861 111.165 106.032C111.226 106.203 111.257 106.392 111.257 106.6C111.257 106.808 111.226 106.999 111.165 107.172C111.104 107.343 111.016 107.491 110.901 107.616C110.789 107.739 110.652 107.833 110.489 107.9C110.326 107.967 110.145 108 109.945 108H108.849ZM109.281 107.628L109.269 107.584H109.925C110.066 107.584 110.192 107.561 110.301 107.516C110.413 107.471 110.506 107.407 110.581 107.324C110.658 107.239 110.717 107.135 110.757 107.012C110.797 106.889 110.817 106.752 110.817 106.6C110.817 106.448 110.797 106.312 110.757 106.192C110.717 106.069 110.658 105.965 110.581 105.88C110.504 105.795 110.41 105.729 110.301 105.684C110.192 105.639 110.066 105.616 109.925 105.616H109.257L109.281 105.58V107.628ZM111.679 108V107.6H112.131V105.6H111.679V105.2H113.015V105.6H112.563V107.6H113.015V108H111.679ZM114.225 108V105.616H113.441V105.2H115.465V105.616H114.657V108H114.225ZM115.997 108V105.2H117.761V105.616H116.429V107.584H117.761V108H115.997ZM116.193 106.772V106.356H117.541V106.772H116.193ZM118.455 108V105.2H119.551C119.751 105.2 119.931 105.233 120.091 105.3C120.253 105.367 120.392 105.463 120.507 105.588C120.621 105.713 120.709 105.861 120.771 106.032C120.832 106.203 120.863 106.392 120.863 106.6C120.863 106.808 120.832 106.999 120.771 107.172C120.709 107.343 120.621 107.491 120.507 107.616C120.395 107.739 120.257 107.833 120.095 107.9C119.932 107.967 119.751 108 119.551 108H118.455ZM118.887 107.628L118.875 107.584H119.531C119.672 107.584 119.797 107.561 119.907 107.516C120.019 107.471 120.112 107.407 120.187 107.324C120.264 107.239 120.323 107.135 120.363 107.012C120.403 106.889 120.423 106.752 120.423 106.6C120.423 106.448 120.403 106.312 120.363 106.192C120.323 106.069 120.264 105.965 120.187 105.88C120.109 105.795 120.016 105.729 119.907 105.684C119.797 105.639 119.672 105.616 119.531 105.616H118.863L118.887 105.58V107.628ZM122.568 108V105.2H123.736C123.914 105.2 124.065 105.227 124.188 105.28C124.31 105.333 124.402 105.413 124.464 105.52C124.528 105.624 124.56 105.752 124.56 105.904C124.56 106.056 124.517 106.185 124.432 106.292C124.349 106.399 124.233 106.472 124.084 106.512V106.432C124.209 106.459 124.318 106.507 124.412 106.576C124.505 106.643 124.577 106.727 124.628 106.828C124.681 106.929 124.708 107.045 124.708 107.176C124.708 107.309 124.686 107.428 124.644 107.532C124.604 107.633 124.542 107.719 124.46 107.788C124.38 107.857 124.282 107.911 124.168 107.948C124.053 107.983 123.922 108 123.776 108H122.568ZM123 107.584H123.752C123.861 107.584 123.953 107.568 124.028 107.536C124.105 107.504 124.164 107.457 124.204 107.396C124.246 107.332 124.268 107.256 124.268 107.168C124.268 107.085 124.245 107.015 124.2 106.956C124.157 106.897 124.096 106.853 124.016 106.824C123.936 106.792 123.841 106.776 123.732 106.776H123V107.584ZM123 106.36H123.712C123.792 106.36 123.862 106.344 123.924 106.312C123.988 106.28 124.037 106.236 124.072 106.18C124.109 106.124 124.128 106.06 124.128 105.988C124.128 105.868 124.088 105.776 124.008 105.712C123.928 105.648 123.813 105.616 123.664 105.616H123V106.36ZM125.949 108V106.604L125.977 106.8L124.845 105.2H125.365L126.229 106.44L126.129 106.428L126.909 105.2H127.405L126.321 106.844L126.381 106.572V108H125.949ZM129.59 108.04C129.5 108.04 129.413 108.028 129.33 108.004C129.248 107.98 129.17 107.945 129.098 107.9C129.029 107.855 128.966 107.801 128.91 107.74C128.854 107.676 128.806 107.607 128.766 107.532L129.038 107.248C129.094 107.328 129.145 107.392 129.19 107.44C129.238 107.488 129.284 107.525 129.326 107.552C129.369 107.579 129.412 107.597 129.454 107.608C129.497 107.616 129.542 107.62 129.59 107.62C129.686 107.62 129.77 107.599 129.842 107.556C129.914 107.511 129.97 107.449 130.01 107.372C130.05 107.295 130.07 107.207 130.07 107.108V105.6H129.558V105.2H130.934V105.6H130.502V107.148C130.502 107.276 130.48 107.395 130.434 107.504C130.392 107.611 130.329 107.704 130.246 107.784C130.166 107.864 130.07 107.927 129.958 107.972C129.849 108.017 129.726 108.04 129.59 108.04ZM131.525 108V105.2H133.289V105.616H131.957V107.584H133.289V108H131.525ZM131.721 106.772V106.356H133.069V106.772H131.721ZM133.982 108V105.2H135.174C135.334 105.2 135.481 105.24 135.614 105.32C135.75 105.397 135.858 105.504 135.938 105.64C136.018 105.773 136.058 105.924 136.058 106.092C136.058 106.244 136.018 106.385 135.938 106.516C135.858 106.647 135.751 106.752 135.618 106.832C135.485 106.909 135.337 106.948 135.174 106.948H134.414V108H133.982ZM135.646 108L134.934 106.736L135.378 106.636L136.17 108.004L135.646 108ZM134.414 106.532H135.214C135.291 106.532 135.361 106.513 135.422 106.476C135.483 106.436 135.531 106.383 135.566 106.316C135.601 106.247 135.618 106.171 135.618 106.088C135.618 105.995 135.595 105.913 135.55 105.844C135.507 105.772 135.446 105.716 135.366 105.676C135.289 105.636 135.201 105.616 135.102 105.616H134.414V106.532ZM137.896 108.04C137.699 108.04 137.516 108.004 137.348 107.932C137.183 107.86 137.037 107.76 136.912 107.632C136.789 107.501 136.693 107.349 136.624 107.176C136.557 107 136.524 106.808 136.524 106.6C136.524 106.392 136.557 106.201 136.624 106.028C136.693 105.852 136.789 105.7 136.912 105.572C137.037 105.441 137.183 105.34 137.348 105.268C137.516 105.196 137.699 105.16 137.896 105.16C138.093 105.16 138.275 105.196 138.44 105.268C138.608 105.34 138.753 105.441 138.876 105.572C139.001 105.703 139.097 105.856 139.164 106.032C139.233 106.205 139.268 106.395 139.268 106.6C139.268 106.805 139.233 106.996 139.164 107.172C139.097 107.345 139.001 107.497 138.876 107.628C138.753 107.759 138.608 107.86 138.44 107.932C138.275 108.004 138.093 108.04 137.896 108.04ZM137.896 107.62C138.032 107.62 138.156 107.595 138.268 107.544C138.383 107.493 138.481 107.423 138.564 107.332C138.647 107.239 138.711 107.131 138.756 107.008C138.804 106.883 138.828 106.747 138.828 106.6C138.828 106.453 138.804 106.319 138.756 106.196C138.711 106.071 138.647 105.963 138.564 105.872C138.481 105.779 138.383 105.707 138.268 105.656C138.156 105.605 138.032 105.58 137.896 105.58C137.76 105.58 137.635 105.605 137.52 105.656C137.408 105.707 137.309 105.777 137.224 105.868C137.141 105.959 137.077 106.067 137.032 106.192C136.987 106.315 136.964 106.451 136.964 106.6C136.964 106.747 136.987 106.883 137.032 107.008C137.077 107.133 137.141 107.241 137.224 107.332C137.309 107.423 137.408 107.493 137.52 107.544C137.635 107.595 137.76 107.62 137.896 107.62ZM139.853 108V105.2H140.277L141.297 106.86L141.093 106.856L142.125 105.2H142.525V108H142.093V106.852C142.093 106.612 142.098 106.396 142.109 106.204C142.122 106.012 142.144 105.821 142.173 105.632L142.229 105.78L141.313 107.196H141.049L140.161 105.796L140.205 105.632C140.234 105.811 140.254 105.995 140.265 106.184C140.278 106.371 140.285 106.593 140.285 106.852V108H139.853ZM143.31 108V105.2H145.074V105.616H143.742V107.584H145.074V108H143.31ZM143.506 106.772V106.356H144.854V106.772H143.506ZM147.52 108.04C147.429 108.04 147.343 108.028 147.26 108.004C147.177 107.98 147.1 107.945 147.028 107.9C146.959 107.855 146.896 107.801 146.84 107.74C146.784 107.676 146.736 107.607 146.696 107.532L146.968 107.248C147.024 107.328 147.075 107.392 147.12 107.44C147.168 107.488 147.213 107.525 147.256 107.552C147.299 107.579 147.341 107.597 147.384 107.608C147.427 107.616 147.472 107.62 147.52 107.62C147.616 107.62 147.7 107.599 147.772 107.556C147.844 107.511 147.9 107.449 147.94 107.372C147.98 107.295 148 107.207 148 107.108V105.6H147.488V105.2H148.864V105.6H148.432V107.148C148.432 107.276 148.409 107.395 148.364 107.504C148.321 107.611 148.259 107.704 148.176 107.784C148.096 107.864 148 107.927 147.888 107.972C147.779 108.017 147.656 108.04 147.52 108.04ZM150.505 108.04C150.308 108.04 150.125 108.004 149.957 107.932C149.792 107.86 149.647 107.76 149.521 107.632C149.399 107.501 149.303 107.349 149.233 107.176C149.167 107 149.133 106.808 149.133 106.6C149.133 106.392 149.167 106.201 149.233 106.028C149.303 105.852 149.399 105.7 149.521 105.572C149.647 105.441 149.792 105.34 149.957 105.268C150.125 105.196 150.308 105.16 150.505 105.16C150.703 105.16 150.884 105.196 151.049 105.268C151.217 105.34 151.363 105.441 151.485 105.572C151.611 105.703 151.707 105.856 151.773 106.032C151.843 106.205 151.877 106.395 151.877 106.6C151.877 106.805 151.843 106.996 151.773 107.172C151.707 107.345 151.611 107.497 151.485 107.628C151.363 107.759 151.217 107.86 151.049 107.932C150.884 108.004 150.703 108.04 150.505 108.04ZM150.505 107.62C150.641 107.62 150.765 107.595 150.877 107.544C150.992 107.493 151.091 107.423 151.173 107.332C151.256 107.239 151.32 107.131 151.365 107.008C151.413 106.883 151.437 106.747 151.437 106.6C151.437 106.453 151.413 106.319 151.365 106.196C151.32 106.071 151.256 105.963 151.173 105.872C151.091 105.779 150.992 105.707 150.877 105.656C150.765 105.605 150.641 105.58 150.505 105.58C150.369 105.58 150.244 105.605 150.129 105.656C150.017 105.707 149.919 105.777 149.833 105.868C149.751 105.959 149.687 106.067 149.641 106.192C149.596 106.315 149.573 106.451 149.573 106.6C149.573 106.747 149.596 106.883 149.641 107.008C149.687 107.133 149.751 107.241 149.833 107.332C149.919 107.423 150.017 107.493 150.129 107.544C150.244 107.595 150.369 107.62 150.505 107.62ZM154.29 108V105.2H154.722V108H154.29ZM152.462 108V105.2H152.894V108H152.462ZM152.65 106.812V106.396H154.482V106.812H152.65Z" fill="black"/>
<path d="M83.24 133V132.684L84.836 130.548L84.896 130.616H83.344V130.2H85.372V130.512L83.784 132.652L83.72 132.584H85.416V133H83.24ZM87.8567 133V130.2H88.2887V133H87.8567ZM86.0287 133V130.2H86.4607V133H86.0287ZM86.2167 131.812V131.396H88.0487V131.812H86.2167ZM88.7797 133L89.8637 130.2H90.3037L91.3797 133H90.9197L90.2797 131.312C90.2717 131.293 90.2557 131.248 90.2317 131.176C90.2104 131.104 90.185 131.024 90.1557 130.936C90.1264 130.848 90.0997 130.768 90.0757 130.696C90.0517 130.621 90.0357 130.573 90.0277 130.552L90.1197 130.548C90.1037 130.593 90.0837 130.651 90.0597 130.72C90.0384 130.789 90.0144 130.863 89.9877 130.94C89.9637 131.017 89.9397 131.091 89.9157 131.16C89.8917 131.227 89.8717 131.283 89.8557 131.328L89.2197 133H88.7797ZM89.2597 132.304L89.4197 131.888H90.6917L90.8757 132.304H89.2597ZM92.9663 133.04C92.769 133.04 92.5863 133.004 92.4183 132.932C92.253 132.86 92.1077 132.76 91.9823 132.632C91.8597 132.501 91.7637 132.349 91.6943 132.176C91.6277 132 91.5943 131.808 91.5943 131.6C91.5943 131.392 91.6277 131.201 91.6943 131.028C91.7637 130.852 91.8597 130.7 91.9823 130.572C92.1077 130.441 92.253 130.34 92.4183 130.268C92.5863 130.196 92.769 130.16 92.9663 130.16C93.1637 130.16 93.345 130.196 93.5103 130.268C93.6783 130.34 93.8237 130.441 93.9463 130.572C94.0717 130.703 94.1677 130.856 94.2343 131.032C94.3037 131.205 94.3383 131.395 94.3383 131.6C94.3383 131.805 94.3037 131.996 94.2343 132.172C94.1677 132.345 94.0717 132.497 93.9463 132.628C93.8237 132.759 93.6783 132.86 93.5103 132.932C93.345 133.004 93.1637 133.04 92.9663 133.04ZM92.9663 132.62C93.1023 132.62 93.2263 132.595 93.3383 132.544C93.453 132.493 93.5517 132.423 93.6343 132.332C93.717 132.239 93.781 132.131 93.8263 132.008C93.8743 131.883 93.8983 131.747 93.8983 131.6C93.8983 131.453 93.8743 131.319 93.8263 131.196C93.781 131.071 93.717 130.963 93.6343 130.872C93.5517 130.779 93.453 130.707 93.3383 130.656C93.2263 130.605 93.1023 130.58 92.9663 130.58C92.8303 130.58 92.705 130.605 92.5903 130.656C92.4783 130.707 92.3797 130.777 92.2943 130.868C92.2117 130.959 92.1477 131.067 92.1023 131.192C92.057 131.315 92.0343 131.451 92.0343 131.6C92.0343 131.747 92.057 131.883 92.1023 132.008C92.1477 132.133 92.2117 132.241 92.2943 132.332C92.3797 132.423 92.4783 132.493 92.5903 132.544C92.705 132.595 92.8303 132.62 92.9663 132.62Z" fill="black"/>
<path d="M167.144 136V134.604L167.172 134.8L166.04 133.2H166.56L167.424 134.44L167.324 134.428L168.104 133.2H168.6L167.516 134.844L167.576 134.572V136H167.144ZM170.082 136.024C169.866 136.024 169.672 135.977 169.502 135.884C169.331 135.788 169.196 135.657 169.098 135.492C169.002 135.324 168.954 135.135 168.954 134.924V133.196H169.386V134.888C169.386 135.024 169.418 135.147 169.482 135.256C169.546 135.363 169.63 135.448 169.734 135.512C169.84 135.576 169.956 135.608 170.082 135.608C170.215 135.608 170.335 135.576 170.442 135.512C170.551 135.448 170.638 135.363 170.702 135.256C170.766 135.147 170.798 135.024 170.798 134.888V133.196H171.21V134.924C171.21 135.135 171.16 135.324 171.062 135.492C170.966 135.657 170.832 135.788 170.662 135.884C170.491 135.977 170.298 136.024 170.082 136.024ZM171.955 136V133.2H173.719V133.616H172.387V135.584H173.719V136H171.955ZM172.15 134.772V134.356H173.499V134.772H172.15Z" fill="black"/>
<path d="M169.038 161.228C169.187 161.01 169.369 160.876 169.585 160.827C169.809 160.781 170.048 160.824 170.304 160.956C170.539 161.077 170.688 161.238 170.752 161.441C170.816 161.643 170.778 161.847 170.638 162.052C170.49 162.27 170.304 162.402 170.08 162.448C169.864 162.498 169.628 162.456 169.372 162.325C169.137 162.204 168.988 162.042 168.924 161.839C168.86 161.637 168.898 161.433 169.038 161.228Z" fill="#F2F3F2"/>
<path d="M163.676 165.886C163.837 165.724 164.01 165.592 164.196 165.489C164.38 165.389 164.576 165.318 164.785 165.277C164.994 165.241 165.214 165.233 165.445 165.253L165.54 165.874C165.178 165.845 164.89 165.862 164.677 165.924C164.463 165.987 164.269 166.106 164.094 166.282C163.987 166.39 163.909 166.502 163.86 166.619C163.811 166.736 163.795 166.845 163.811 166.946C163.827 167.048 163.879 167.131 163.965 167.196C164.023 167.239 164.085 167.272 164.153 167.293C164.222 167.315 164.295 167.322 164.373 167.317C164.448 167.314 164.532 167.298 164.623 167.267C164.712 167.24 164.806 167.199 164.905 167.144C165.007 167.092 165.116 167.025 165.231 166.943C165.418 166.817 165.597 166.718 165.768 166.648C165.938 166.578 166.105 166.537 166.267 166.525C166.43 166.514 166.583 166.53 166.729 166.575C166.877 166.622 167.02 166.698 167.158 166.801C167.292 166.902 167.392 167.021 167.456 167.159C167.517 167.299 167.545 167.446 167.537 167.599C167.531 167.758 167.488 167.916 167.408 168.075C167.332 168.235 167.222 168.388 167.078 168.533C166.926 168.686 166.764 168.809 166.592 168.903C166.42 168.997 166.24 169.06 166.052 169.092C165.867 169.127 165.678 169.128 165.485 169.097L165.447 168.504C165.609 168.526 165.761 168.529 165.901 168.511C166.045 168.495 166.177 168.458 166.297 168.399C166.42 168.343 166.53 168.267 166.626 168.17C166.736 168.06 166.812 167.949 166.856 167.838C166.899 167.727 166.91 167.621 166.887 167.519C166.865 167.424 166.808 167.341 166.715 167.271C166.648 167.221 166.575 167.185 166.494 167.165C166.417 167.146 166.334 167.143 166.244 167.155C166.155 167.172 166.053 167.207 165.939 167.26C165.828 167.315 165.704 167.388 165.569 167.48C165.375 167.607 165.187 167.709 165.005 167.785C164.827 167.864 164.655 167.915 164.49 167.94C164.326 167.965 164.173 167.962 164.031 167.93C163.887 167.901 163.757 167.843 163.642 167.756C163.428 167.595 163.286 167.412 163.217 167.206C163.148 167.001 163.151 166.785 163.225 166.558C163.303 166.334 163.453 166.11 163.676 165.886Z" fill="#F2F3F2"/>
<path d="M158.989 170.157L161.792 173.284L161.266 173.641L158.337 172.645L158.594 172.478L158.971 175.195L158.474 175.532L155.671 172.405L156.207 172.041L157.357 173.323C157.597 173.591 157.807 173.837 157.986 174.061C158.161 174.286 158.326 174.517 158.479 174.753L158.261 174.635L157.981 172.283L158.309 172.061L160.813 172.877L160.923 173.098C160.707 172.923 160.498 172.734 160.296 172.532C160.092 172.334 159.861 172.091 159.602 171.802L158.452 170.52L158.989 170.157Z" fill="#F2F3F2"/>
<path d="M150.696 175.192L151.234 179.493L150.626 179.749L147.1 176.7L147.736 176.433L149.85 178.276C149.874 178.296 149.929 178.346 150.015 178.427C150.097 178.509 150.19 178.599 150.295 178.697C150.399 178.796 150.494 178.885 150.58 178.966C150.668 179.05 150.725 179.103 150.751 179.127L150.627 179.185C150.616 179.117 150.602 179.03 150.585 178.925C150.564 178.822 150.544 178.712 150.524 178.595C150.501 178.479 150.481 178.369 150.464 178.264C150.448 178.163 150.435 178.078 150.424 178.009L150.088 175.447L150.696 175.192ZM150.539 176.383L150.62 177.022L148.86 177.759L148.303 177.32L150.539 176.383Z" fill="#F2F3F2"/>
<path d="M142.41 179.307L143.558 183.347L141.81 183.723C141.576 183.773 141.344 183.762 141.116 183.688C140.885 183.619 140.682 183.5 140.509 183.329C140.337 183.161 140.217 182.957 140.148 182.714C140.086 182.495 140.086 182.278 140.15 182.065C140.214 181.851 140.327 181.665 140.49 181.508C140.653 181.354 140.855 181.252 141.093 181.201L142.208 180.961L141.776 179.443L142.41 179.307ZM139.969 179.831L141.532 181.431L140.922 181.715L139.199 179.991L139.969 179.831ZM142.378 181.561L141.205 181.813C141.092 181.838 140.998 181.887 140.923 181.96C140.85 182.037 140.801 182.129 140.778 182.236C140.755 182.347 140.761 182.462 140.795 182.581C140.833 182.716 140.9 182.826 140.995 182.912C141.087 183.002 141.2 183.064 141.333 183.096C141.463 183.13 141.6 183.131 141.745 183.1L142.754 182.883L142.378 181.561Z" fill="#F2F3F2"/>
<path d="M132.613 180.866L132.773 184.439L133.948 184.399L133.976 185.022L130.941 185.125L130.914 184.501L132.125 184.46L131.966 180.888L132.613 180.866Z" fill="#F2F3F2"/>
<path d="M126.135 180.881L126.037 181.473L125.364 181.389L124.873 184.349L125.546 184.433L125.448 185.025L123.459 184.776L123.557 184.184L124.23 184.268L124.721 181.308L124.048 181.224L124.146 180.632L126.135 180.881Z" fill="#F2F3F2"/>
<path d="M118.231 178.521C118.449 178.589 118.64 178.68 118.804 178.793C118.965 178.905 119.099 179.041 119.206 179.199C119.308 179.36 119.384 179.542 119.434 179.745L118.816 180.086C118.735 179.769 118.629 179.534 118.498 179.38C118.368 179.227 118.184 179.114 117.947 179.04C117.802 178.995 117.661 178.977 117.524 178.984C117.387 178.992 117.269 179.024 117.168 179.08C117.067 179.137 116.997 179.215 116.956 179.315C116.928 179.381 116.914 179.448 116.912 179.514C116.911 179.581 116.925 179.645 116.955 179.709C116.981 179.771 117.024 179.835 117.084 179.899C117.14 179.962 117.211 180.024 117.299 180.084C117.384 180.149 117.488 180.212 117.608 180.274C117.798 180.379 117.955 180.488 118.081 180.602C118.206 180.716 118.3 180.839 118.362 180.971C118.425 181.103 118.455 181.24 118.453 181.381C118.449 181.526 118.415 181.678 118.35 181.837C118.286 181.992 118.192 182.126 118.069 182.238C117.941 182.349 117.797 182.433 117.635 182.491C117.468 182.552 117.29 182.583 117.101 182.582C116.91 182.586 116.717 182.557 116.522 182.497C116.316 182.433 116.137 182.348 115.986 182.243C115.836 182.138 115.715 182.013 115.624 181.868C115.531 181.726 115.471 181.568 115.444 181.393L116.05 181.111C116.077 181.257 116.121 181.386 116.183 181.497C116.243 181.611 116.323 181.707 116.421 181.783C116.517 181.863 116.63 181.923 116.76 181.964C116.909 182.01 117.048 182.028 117.177 182.018C117.306 182.008 117.42 181.972 117.518 181.911C117.611 181.852 117.68 181.769 117.724 181.662C117.756 181.584 117.77 181.507 117.767 181.431C117.762 181.359 117.74 181.287 117.7 181.216C117.655 181.148 117.587 181.077 117.497 181.003C117.405 180.933 117.29 180.86 117.154 180.784C116.962 180.675 116.798 180.559 116.663 180.438C116.526 180.32 116.419 180.198 116.342 180.069C116.266 179.941 116.222 179.811 116.212 179.679C116.198 179.545 116.218 179.412 116.273 179.278C116.375 179.03 116.522 178.834 116.715 178.69C116.908 178.545 117.133 178.456 117.392 178.424C117.649 178.395 117.929 178.428 118.231 178.521Z" fill="#F2F3F2"/>
<path d="M112.241 176.779L108.355 179.405L107.775 179.089L108.818 174.911L109.423 175.241L108.783 177.754C108.778 177.782 108.759 177.849 108.727 177.954C108.692 178.057 108.655 178.172 108.617 178.3C108.578 178.428 108.543 178.545 108.511 178.649C108.477 178.757 108.456 178.827 108.448 178.859L108.323 178.798C108.384 178.754 108.461 178.699 108.553 178.632C108.642 178.563 108.738 178.491 108.841 178.416C108.941 178.339 109.037 178.267 109.129 178.2C109.219 178.136 109.295 178.083 109.356 178.039L111.662 176.463L112.241 176.779ZM110.998 177.28L110.422 177.671L108.747 176.757L108.87 176.119L110.998 177.28Z" fill="#F2F3F2"/>
<path d="M104.135 172.29L100.989 175.073L100.547 174.695L101.169 170.749L101.283 170.776C101.22 170.852 101.15 170.933 101.072 171.018C100.991 171.105 100.906 171.196 100.816 171.291C100.721 171.387 100.62 171.486 100.515 171.589C100.405 171.692 100.289 171.8 100.17 171.911C100.05 172.022 99.924 172.136 99.7921 172.253L98.7585 173.167L98.2658 172.746L101.412 169.964L101.863 170.349L101.303 174.184L101.19 174.197C101.358 174.023 101.501 173.874 101.621 173.753C101.735 173.631 101.833 173.528 101.917 173.443C101.995 173.358 102.061 173.29 102.115 173.237C102.166 173.186 102.209 173.145 102.245 173.113C102.278 173.079 102.308 173.05 102.335 173.026L103.642 171.869L104.135 172.29Z" fill="#F2F3F2"/>
<path d="M94.4515 164.43C94.6177 164.635 94.6814 164.834 94.6425 165.025C94.5967 165.22 94.4511 165.393 94.2055 165.544C93.9804 165.682 93.7483 165.735 93.5093 165.705C93.2704 165.675 93.0728 165.563 92.9166 165.371C92.7503 165.166 92.6901 164.965 92.7358 164.77C92.7748 164.579 92.917 164.408 93.1626 164.257C93.3877 164.119 93.6198 164.066 93.8587 164.096C94.0977 164.126 94.2953 164.238 94.4515 164.43Z" fill="#F2F3F2"/>
<defs>
<filter id="filter0_i_0_1" x="0" y="0" width="260" height="264" filterUnits="userSpaceOnUse" color-interpolation-filters="sRGB">
<feFlood flood-opacity="0" result="BackgroundImageFix"/>
<feBlend mode="normal" in="SourceGraphic" in2="BackgroundImageFix" result="shape"/>
<feColorMatrix in="SourceAlpha" type="matrix" values="0 0 0 0 0 0 0 0 0 0 0 0 0 0 0 0 0 0 127 0" result="hardAlpha"/>
<feOffset dy="4"/>
<feGaussianBlur stdDeviation="2"/>
<feComposite in2="hardAlpha" operator="arithmetic" k2="-1" k3="1"/>
<feColorMatrix type="matrix" values="0 0 0 0 0.175 0 0 0 0 0.158958 0 0 0 0 0.158958 0 0 0 0.25 0"/>
<feBlend mode="normal" in2="shape" result="effect1_innerShadow_0_1"/>
</filter>
</defs>
</svg>
