<svg width="414" height="324" viewBox="0 0 414 324" fill="none" xmlns="http://www.w3.org/2000/svg">
<g filter="url(#filter0_d_0_1)">
<rect x="6" y="7" width="400" height="300" rx="30" fill="#F2F3F2"/>
</g>
<g filter="url(#filter1_d_0_1)">
<circle cx="339" cy="59" r="27" fill="#EBECEB"/>
</g>
<path d="M115.368 126.964C115.104 126.964 114.9 126.888 114.756 126.736C114.612 126.576 114.54 126.352 114.54 126.064C114.54 125.8 114.616 125.584 114.768 125.416C114.92 125.248 115.12 125.164 115.368 125.164C115.632 125.164 115.836 125.244 115.98 125.404C116.124 125.556 116.196 125.776 116.196 126.064C116.196 126.328 116.12 126.544 115.968 126.712C115.816 126.88 115.616 126.964 115.368 126.964ZM123.862 130.12C123.406 130.12 122.982 130.06 122.59 129.94C122.206 129.82 121.854 129.64 121.534 129.4C121.222 129.152 120.942 128.848 120.694 128.488L121.582 127.468C121.974 128.028 122.35 128.416 122.71 128.632C123.07 128.848 123.498 128.956 123.994 128.956C124.298 128.956 124.574 128.908 124.822 128.812C125.07 128.716 125.266 128.584 125.41 128.416C125.554 128.248 125.626 128.056 125.626 127.84C125.626 127.696 125.602 127.56 125.554 127.432C125.506 127.304 125.43 127.188 125.326 127.084C125.23 126.98 125.102 126.884 124.942 126.796C124.79 126.708 124.61 126.632 124.402 126.568C124.194 126.496 123.954 126.436 123.682 126.388C123.25 126.3 122.874 126.184 122.554 126.04C122.234 125.896 121.966 125.716 121.75 125.5C121.534 125.284 121.374 125.04 121.27 124.768C121.166 124.488 121.114 124.176 121.114 123.832C121.114 123.496 121.186 123.184 121.33 122.896C121.482 122.608 121.686 122.36 121.942 122.152C122.206 121.936 122.514 121.772 122.866 121.66C123.218 121.54 123.598 121.48 124.006 121.48C124.438 121.48 124.834 121.536 125.194 121.648C125.554 121.76 125.874 121.928 126.154 122.152C126.434 122.368 126.666 122.636 126.85 122.956L125.938 123.856C125.778 123.592 125.598 123.372 125.398 123.196C125.198 123.012 124.978 122.876 124.738 122.788C124.498 122.692 124.242 122.644 123.97 122.644C123.658 122.644 123.386 122.692 123.154 122.788C122.922 122.884 122.738 123.02 122.602 123.196C122.474 123.364 122.41 123.564 122.41 123.796C122.41 123.964 122.442 124.12 122.506 124.264C122.57 124.4 122.666 124.524 122.794 124.636C122.93 124.74 123.11 124.836 123.334 124.924C123.558 125.004 123.826 125.076 124.138 125.14C124.578 125.236 124.97 125.36 125.314 125.512C125.658 125.656 125.95 125.828 126.19 126.028C126.43 126.228 126.61 126.452 126.73 126.7C126.858 126.948 126.922 127.216 126.922 127.504C126.922 128.04 126.798 128.504 126.55 128.896C126.302 129.288 125.95 129.592 125.494 129.808C125.038 130.016 124.494 130.12 123.862 130.12ZM128.758 130V121.6H130.03L133.09 126.58L132.478 126.568L135.574 121.6H136.774V130H135.478V126.556C135.478 125.836 135.494 125.188 135.526 124.612C135.566 124.036 135.63 123.464 135.718 122.896L135.886 123.34L133.138 127.588H132.346L129.682 123.388L129.814 122.896C129.902 123.432 129.962 123.984 129.994 124.552C130.034 125.112 130.054 125.78 130.054 126.556V130H128.758ZM138.253 130L141.505 121.6H142.825L146.053 130H144.673L142.753 124.936C142.729 124.88 142.681 124.744 142.609 124.528C142.545 124.312 142.469 124.072 142.381 123.808C142.293 123.544 142.213 123.304 142.141 123.088C142.069 122.864 142.021 122.72 141.997 122.656L142.273 122.644C142.225 122.78 142.165 122.952 142.093 123.16C142.029 123.368 141.957 123.588 141.877 123.82C141.805 124.052 141.733 124.272 141.661 124.48C141.589 124.68 141.529 124.848 141.481 124.984L139.573 130H138.253ZM139.693 127.912L140.173 126.664H143.989L144.541 127.912H139.693ZM147.531 130V121.6H151.107C151.587 121.6 152.027 121.72 152.427 121.96C152.835 122.192 153.159 122.512 153.399 122.92C153.639 123.32 153.759 123.772 153.759 124.276C153.759 124.732 153.639 125.156 153.399 125.548C153.159 125.94 152.839 126.256 152.439 126.496C152.039 126.728 151.595 126.844 151.107 126.844H148.827V130H147.531ZM152.523 130L150.387 126.208L151.719 125.908L154.095 130.012L152.523 130ZM148.827 125.596H151.227C151.459 125.596 151.667 125.54 151.851 125.428C152.035 125.308 152.179 125.148 152.283 124.948C152.387 124.74 152.439 124.512 152.439 124.264C152.439 123.984 152.371 123.74 152.235 123.532C152.107 123.316 151.923 123.148 151.683 123.028C151.451 122.908 151.187 122.848 150.891 122.848H148.827V125.596ZM157.237 130V122.848H154.885V121.6H160.957V122.848H158.533V130H157.237ZM162.243 130V128.8H163.599V122.8H162.243V121.6H166.251V122.8H164.895V128.8H166.251V130H162.243ZM170.877 130.12C170.421 130.12 169.997 130.06 169.605 129.94C169.221 129.82 168.869 129.64 168.549 129.4C168.237 129.152 167.957 128.848 167.709 128.488L168.597 127.468C168.989 128.028 169.365 128.416 169.725 128.632C170.085 128.848 170.513 128.956 171.009 128.956C171.313 128.956 171.589 128.908 171.837 128.812C172.085 128.716 172.281 128.584 172.425 128.416C172.569 128.248 172.641 128.056 172.641 127.84C172.641 127.696 172.617 127.56 172.569 127.432C172.521 127.304 172.445 127.188 172.341 127.084C172.245 126.98 172.117 126.884 171.957 126.796C171.805 126.708 171.625 126.632 171.417 126.568C171.209 126.496 170.969 126.436 170.697 126.388C170.265 126.3 169.889 126.184 169.569 126.04C169.249 125.896 168.981 125.716 168.765 125.5C168.549 125.284 168.389 125.04 168.285 124.768C168.181 124.488 168.129 124.176 168.129 123.832C168.129 123.496 168.201 123.184 168.345 122.896C168.497 122.608 168.701 122.36 168.957 122.152C169.221 121.936 169.529 121.772 169.881 121.66C170.233 121.54 170.613 121.48 171.021 121.48C171.453 121.48 171.849 121.536 172.209 121.648C172.569 121.76 172.889 121.928 173.169 122.152C173.449 122.368 173.681 122.636 173.865 122.956L172.953 123.856C172.793 123.592 172.613 123.372 172.413 123.196C172.213 123.012 171.993 122.876 171.753 122.788C171.513 122.692 171.257 122.644 170.985 122.644C170.673 122.644 170.401 122.692 170.169 122.788C169.937 122.884 169.753 123.02 169.617 123.196C169.489 123.364 169.425 123.564 169.425 123.796C169.425 123.964 169.457 124.12 169.521 124.264C169.585 124.4 169.681 124.524 169.809 124.636C169.945 124.74 170.125 124.836 170.349 124.924C170.573 125.004 170.841 125.076 171.153 125.14C171.593 125.236 171.985 125.36 172.329 125.512C172.673 125.656 172.965 125.828 173.205 126.028C173.445 126.228 173.625 126.452 173.745 126.7C173.873 126.948 173.937 127.216 173.937 127.504C173.937 128.04 173.813 128.504 173.565 128.896C173.317 129.288 172.965 129.592 172.509 129.808C172.053 130.016 171.509 130.12 170.877 130.12ZM174.898 130L178.15 121.6H179.47L182.698 130H181.318L179.398 124.936C179.374 124.88 179.326 124.744 179.254 124.528C179.19 124.312 179.114 124.072 179.026 123.808C178.938 123.544 178.858 123.304 178.786 123.088C178.714 122.864 178.666 122.72 178.642 122.656L178.918 122.644C178.87 122.78 178.81 122.952 178.738 123.16C178.674 123.368 178.602 123.588 178.522 123.82C178.45 124.052 178.378 124.272 178.306 124.48C178.234 124.68 178.174 124.848 178.126 124.984L176.218 130H174.898ZM176.338 127.912L176.818 126.664H180.634L181.186 127.912H176.338ZM184.176 130V121.6H185.34L190.476 128.476L190.284 128.584C190.252 128.384 190.224 128.168 190.2 127.936C190.176 127.696 190.152 127.444 190.128 127.18C190.112 126.908 190.096 126.624 190.08 126.328C190.072 126.024 190.064 125.708 190.056 125.38C190.048 125.052 190.044 124.712 190.044 124.36V121.6H191.34V130H190.152L185.1 123.376L185.232 123.208C185.272 123.696 185.304 124.112 185.328 124.456C185.36 124.792 185.384 125.08 185.4 125.32C185.424 125.552 185.44 125.744 185.448 125.896C185.456 126.04 185.46 126.16 185.46 126.256C185.468 126.352 185.472 126.436 185.472 126.508V130H184.176ZM197.247 126.964C196.983 126.964 196.779 126.888 196.635 126.736C196.491 126.576 196.419 126.352 196.419 126.064C196.419 125.8 196.495 125.584 196.647 125.416C196.799 125.248 196.999 125.164 197.247 125.164C197.511 125.164 197.715 125.244 197.859 125.404C198.003 125.556 198.075 125.776 198.075 126.064C198.075 126.328 197.999 126.544 197.847 126.712C197.695 126.88 197.495 126.964 197.247 126.964Z" fill="#F2F3F2"/>
<g filter="url(#filter2_d_0_1)">
<path d="M339.46 7C339.46 24.3605 339.46 69.404 339.46 110.694C339.46 162.306 346.723 159.022 350.451 177.79C357.256 212.042 340.768 253.801 318 266" stroke="#8A8A8A" stroke-width="13" stroke-linecap="round"/>
</g>
<g filter="url(#filter3_d_0_1)">
<path d="M336.197 7C336.197 24.2264 336.197 68.9221 336.197 109.893C336.197 161.107 343.033 157.848 346.542 176.471C352.947 210.458 337.429 251.895 316 264" stroke="#E9E9E9" stroke-width="4" stroke-linecap="round"/>
</g>
<g filter="url(#filter4_d_0_1)">
<path d="M341.984 7C341.984 24.8297 341.984 71.0906 341.984 113.496C341.984 166.504 350.102 163.13 354.269 182.406C361.874 217.583 343.447 260.471 318 273" stroke="#E9E9E9" stroke-linecap="round"/>
</g>
<rect x="306.639" y="282.823" width="21" height="17" rx="4" transform="rotate(-115 306.639 282.823)" fill="#372E2B"/>
<rect x="299.339" y="315.347" width="25" height="15" rx="2" transform="rotate(-119 299.339 315.347)" fill="#8F908B"/>
<g filter="url(#filter5_dd_0_1)">
<rect x="233.006" y="288.336" width="70.7453" height="33" rx="6" transform="rotate(-26 233.006 288.336)" fill="#F1F1F1"/>
</g>
<rect x="295.67" y="306.287" width="13" height="7" transform="rotate(-29 295.67 306.287)" fill="#C0C0C0"/>
<g filter="url(#filter6_d_0_1)">
<circle cx="339" cy="59" r="17" fill="#F8F9F8"/>
</g>
<g filter="url(#filter7_i_0_1)">
<circle cx="154.5" cy="162.5" r="132.5" fill="#0C0C0C" fill-opacity="0.83"/>
</g>
<circle cx="154.5" cy="162.5" r="65.5" fill="#B02D32" stroke="#40343A" stroke-width="4"/>
<circle cx="154.5" cy="162.5" r="12" fill="#605B5E" stroke="#40343A"/>
<circle cx="154.5" cy="162.5" r="6.5" fill="#D9D9D9"/>
<path d="M113.19 137.226C113.052 137.451 112.88 137.584 112.675 137.627C112.463 137.666 112.235 137.61 111.99 137.459C111.765 137.32 111.621 137.142 111.558 136.925C111.494 136.707 111.528 136.493 111.658 136.282C111.796 136.057 111.971 135.925 112.183 135.887C112.388 135.844 112.613 135.898 112.858 136.049C113.083 136.187 113.227 136.365 113.29 136.583C113.354 136.8 113.32 137.015 113.19 137.226Z" fill="#F2F3F2"/>
<path d="M121.559 131.293C121.254 131.633 120.927 131.909 120.576 132.121C120.23 132.327 119.861 132.469 119.469 132.547C119.076 132.614 118.663 132.62 118.229 132.564L118.062 131.222C118.741 131.304 119.281 131.283 119.682 131.159C120.083 131.034 120.449 130.788 120.78 130.418C120.983 130.192 121.131 129.954 121.225 129.705C121.319 129.457 121.351 129.223 121.322 129.003C121.293 128.784 121.198 128.602 121.037 128.458C120.93 128.362 120.813 128.289 120.685 128.239C120.558 128.19 120.421 128.169 120.274 128.177C120.133 128.179 119.976 128.211 119.803 128.271C119.636 128.325 119.46 128.409 119.273 128.521C119.081 128.628 118.876 128.767 118.659 128.937C118.305 129.2 117.968 129.403 117.647 129.545C117.326 129.688 117.013 129.767 116.708 129.784C116.403 129.801 116.115 129.757 115.843 129.653C115.565 129.544 115.298 129.374 115.041 129.145C114.791 128.92 114.607 128.659 114.488 128.359C114.375 128.054 114.327 127.736 114.343 127.407C114.358 127.066 114.441 126.727 114.593 126.39C114.738 126.048 114.947 125.725 115.219 125.421C115.507 125.099 115.813 124.842 116.137 124.648C116.461 124.455 116.799 124.329 117.153 124.27C117.501 124.205 117.855 124.211 118.216 124.288L118.278 125.567C117.975 125.51 117.691 125.498 117.426 125.529C117.156 125.556 116.908 125.629 116.682 125.749C116.45 125.863 116.244 126.022 116.062 126.225C115.854 126.457 115.708 126.692 115.625 126.929C115.542 127.165 115.52 127.393 115.561 127.612C115.6 127.819 115.707 128 115.879 128.155C116.004 128.267 116.142 128.348 116.292 128.396C116.436 128.439 116.592 128.45 116.761 128.43C116.929 128.398 117.121 128.328 117.336 128.22C117.545 128.106 117.778 127.955 118.033 127.765C118.398 127.501 118.752 127.292 119.095 127.137C119.432 126.977 119.755 126.874 120.064 126.829C120.373 126.784 120.66 126.799 120.925 126.875C121.195 126.945 121.437 127.076 121.652 127.269C122.051 127.626 122.314 128.028 122.44 128.474C122.567 128.921 122.559 129.386 122.415 129.869C122.266 130.348 121.98 130.823 121.559 131.293Z" fill="#F2F3F2"/>
<path d="M125.641 126.921L120.594 120.207L121.61 119.442L127.049 121.585L126.552 121.943L126.042 116.111L127.001 115.39L132.048 122.105L131.012 122.883L128.943 120.131C128.51 119.555 128.134 119.027 127.813 118.548C127.499 118.063 127.207 117.568 126.936 117.061L127.337 117.315L127.693 122.361L127.06 122.837L122.406 121.081L122.216 120.608C122.609 120.984 122.988 121.389 123.355 121.824C123.724 122.247 124.141 122.769 124.607 123.39L126.677 126.143L125.641 126.921Z" fill="#F2F3F2"/>
<path d="M134.059 120.974L133.496 111.984L134.694 111.432L141.142 117.709L139.889 118.287L136.025 114.492C135.98 114.451 135.88 114.347 135.724 114.181C135.575 114.012 135.406 113.826 135.215 113.623C135.025 113.42 134.852 113.236 134.696 113.07C134.537 112.896 134.433 112.786 134.384 112.738L134.63 112.611C134.643 112.755 134.661 112.936 134.683 113.155C134.712 113.371 134.738 113.601 134.763 113.845C134.794 114.086 134.821 114.316 134.843 114.535C134.861 114.746 134.877 114.924 134.89 115.068L135.257 120.422L134.059 120.974ZM134.492 118.475L134.406 117.141L137.871 115.544L138.895 116.446L134.492 118.475Z" fill="#F2F3F2"/>
<path d="M143.507 117.033L141.634 108.844L145.12 108.047C145.588 107.94 146.044 107.959 146.487 108.104C146.937 108.239 147.324 108.478 147.649 108.823C147.972 109.159 148.19 109.573 148.302 110.064C148.404 110.509 148.381 110.949 148.235 111.385C148.088 111.82 147.847 112.2 147.51 112.523C147.172 112.838 146.765 113.05 146.289 113.159L144.067 113.667L144.77 116.744L143.507 117.033ZM148.373 115.92L145.446 112.699L146.677 112.11L149.909 115.581L148.373 115.92ZM143.789 112.451L146.128 111.916C146.354 111.864 146.545 111.763 146.699 111.613C146.852 111.455 146.956 111.267 147.013 111.048C147.068 110.822 147.068 110.589 147.013 110.347C146.95 110.074 146.83 109.851 146.651 109.679C146.478 109.497 146.261 109.374 146 109.311C145.747 109.245 145.477 109.246 145.188 109.312L143.176 109.772L143.789 112.451Z" fill="#F2F3F2"/>
<path d="M154.437 115.346L154.284 108.196L151.933 108.246L151.906 106.998L157.977 106.869L158.004 108.116L155.58 108.168L155.732 115.318L154.437 115.346Z" fill="#F2F3F2"/>
<path d="M160.167 115.537L160.359 114.353L161.698 114.569L162.657 108.647L161.319 108.43L161.511 107.245L165.467 107.886L165.275 109.071L163.936 108.854L162.977 114.777L164.315 114.994L164.123 116.178L160.167 115.537Z" fill="#F2F3F2"/>
<path d="M169.813 118.063C169.387 117.902 169.011 117.696 168.686 117.446C168.369 117.198 168.103 116.906 167.888 116.568C167.684 116.226 167.529 115.843 167.424 115.419L168.614 114.777C168.784 115.439 168.999 115.935 169.26 116.264C169.52 116.593 169.883 116.845 170.347 117.02C170.632 117.127 170.907 117.179 171.173 117.177C171.439 117.174 171.669 117.12 171.863 117.013C172.056 116.907 172.192 116.753 172.268 116.55C172.318 116.416 172.344 116.28 172.344 116.143C172.344 116.006 172.314 115.871 172.253 115.737C172.2 115.606 172.114 115.471 171.995 115.332C171.884 115.196 171.742 115.062 171.57 114.929C171.401 114.788 171.198 114.647 170.96 114.507C170.587 114.272 170.276 114.031 170.027 113.783C169.778 113.536 169.591 113.273 169.465 112.995C169.339 112.716 169.275 112.432 169.274 112.14C169.275 111.842 169.336 111.531 169.457 111.21C169.576 110.895 169.753 110.628 169.989 110.41C170.233 110.194 170.511 110.034 170.824 109.929C171.147 109.82 171.493 109.775 171.862 109.794C172.234 109.806 172.611 109.884 172.993 110.027C173.397 110.18 173.748 110.372 174.045 110.603C174.343 110.835 174.583 111.105 174.766 111.413C174.952 111.714 175.075 112.047 175.134 112.411L173.964 112.932C173.907 112.628 173.816 112.359 173.691 112.124C173.568 111.881 173.41 111.676 173.217 111.51C173.026 111.335 172.803 111.2 172.549 111.104C172.257 110.994 171.985 110.943 171.734 110.951C171.483 110.959 171.263 111.022 171.074 111.139C170.895 111.251 170.765 111.415 170.683 111.633C170.624 111.79 170.599 111.947 170.608 112.104C170.62 112.254 170.666 112.404 170.746 112.554C170.837 112.699 170.972 112.852 171.15 113.014C171.332 113.168 171.557 113.329 171.827 113.499C172.204 113.744 172.528 113.998 172.796 114.262C173.067 114.518 173.28 114.782 173.434 115.053C173.588 115.325 173.678 115.598 173.703 115.873C173.735 116.15 173.7 116.423 173.599 116.693C173.41 117.194 173.13 117.585 172.76 117.864C172.39 118.144 171.953 118.304 171.451 118.346C170.951 118.38 170.405 118.285 169.813 118.063Z" fill="#F2F3F2"/>
<path d="M174.441 119.872L181.754 114.613L182.86 115.335L180.973 124.134L179.818 123.38L180.977 118.089C180.987 118.029 181.021 117.889 181.079 117.669C181.143 117.453 181.211 117.21 181.281 116.941C181.352 116.672 181.416 116.427 181.474 116.207C181.536 115.98 181.574 115.833 181.589 115.767L181.827 115.907C181.712 115.995 181.568 116.106 181.394 116.241C181.227 116.38 181.047 116.525 180.853 116.676C180.666 116.831 180.485 116.976 180.311 117.111C180.142 117.239 180 117.347 179.885 117.434L175.546 120.593L174.441 119.872ZM176.788 118.91L177.872 118.127L181.068 120.212L180.848 121.559L176.788 118.91Z" fill="#F2F3F2"/>
<path d="M182.927 125.907L188.919 120.019L189.735 120.849L188.43 129.332L188.219 129.271C188.339 129.108 188.473 128.936 188.622 128.757C188.776 128.571 188.939 128.377 189.111 128.175C189.293 127.973 189.485 127.763 189.685 127.544C189.896 127.325 190.116 127.098 190.344 126.862C190.572 126.627 190.812 126.386 191.063 126.139L193.032 124.204L193.94 125.129L187.949 131.016L187.116 130.169L188.3 121.923L188.512 121.899C188.192 122.27 187.918 122.584 187.689 122.842C187.472 123.101 187.283 123.32 187.123 123.499C186.975 123.679 186.849 123.825 186.746 123.937C186.649 124.044 186.566 124.131 186.498 124.198C186.435 124.271 186.378 124.333 186.327 124.383L183.836 126.831L182.927 125.907Z" fill="#F2F3F2"/>
<path d="M193.929 134.166C193.78 133.948 193.729 133.736 193.773 133.532C193.825 133.323 193.97 133.137 194.208 132.976C194.426 132.827 194.648 132.769 194.872 132.8C195.097 132.832 195.278 132.95 195.418 133.155C195.566 133.374 195.614 133.587 195.563 133.796C195.518 134.001 195.377 134.184 195.138 134.346C194.92 134.494 194.698 134.553 194.474 134.521C194.25 134.49 194.068 134.371 193.929 134.166Z" fill="#F2F3F2"/>
<path d="M129.392 140V137.2H131.156V137.616H129.824V139.584H131.156V140H129.392ZM129.588 138.772V138.356H130.936V138.772H129.588ZM131.849 140V137.2H132.945C133.145 137.2 133.325 137.233 133.485 137.3C133.648 137.367 133.786 137.463 133.901 137.588C134.016 137.713 134.104 137.861 134.165 138.032C134.226 138.203 134.257 138.392 134.257 138.6C134.257 138.808 134.226 138.999 134.165 139.172C134.104 139.343 134.016 139.491 133.901 139.616C133.789 139.739 133.652 139.833 133.489 139.9C133.326 139.967 133.145 140 132.945 140H131.849ZM132.281 139.628L132.269 139.584H132.925C133.066 139.584 133.192 139.561 133.301 139.516C133.413 139.471 133.506 139.407 133.581 139.324C133.658 139.239 133.717 139.135 133.757 139.012C133.797 138.889 133.817 138.752 133.817 138.6C133.817 138.448 133.797 138.312 133.757 138.192C133.717 138.069 133.658 137.965 133.581 137.88C133.504 137.795 133.41 137.729 133.301 137.684C133.192 137.639 133.066 137.616 132.925 137.616H132.257L132.281 137.58V139.628ZM134.679 140V139.6H135.131V137.6H134.679V137.2H136.015V137.6H135.563V139.6H136.015V140H134.679ZM137.225 140V137.616H136.441V137.2H138.465V137.616H137.657V140H137.225ZM138.997 140V137.2H140.761V137.616H139.429V139.584H140.761V140H138.997ZM139.193 138.772V138.356H140.541V138.772H139.193ZM141.455 140V137.2H142.551C142.751 137.2 142.931 137.233 143.091 137.3C143.253 137.367 143.392 137.463 143.507 137.588C143.621 137.713 143.709 137.861 143.771 138.032C143.832 138.203 143.863 138.392 143.863 138.6C143.863 138.808 143.832 138.999 143.771 139.172C143.709 139.343 143.621 139.491 143.507 139.616C143.395 139.739 143.257 139.833 143.095 139.9C142.932 139.967 142.751 140 142.551 140H141.455ZM141.887 139.628L141.875 139.584H142.531C142.672 139.584 142.797 139.561 142.907 139.516C143.019 139.471 143.112 139.407 143.187 139.324C143.264 139.239 143.323 139.135 143.363 139.012C143.403 138.889 143.423 138.752 143.423 138.6C143.423 138.448 143.403 138.312 143.363 138.192C143.323 138.069 143.264 137.965 143.187 137.88C143.109 137.795 143.016 137.729 142.907 137.684C142.797 137.639 142.672 137.616 142.531 137.616H141.863L141.887 137.58V139.628ZM145.568 140V137.2H146.736C146.914 137.2 147.065 137.227 147.188 137.28C147.31 137.333 147.402 137.413 147.464 137.52C147.528 137.624 147.56 137.752 147.56 137.904C147.56 138.056 147.517 138.185 147.432 138.292C147.349 138.399 147.233 138.472 147.084 138.512V138.432C147.209 138.459 147.318 138.507 147.412 138.576C147.505 138.643 147.577 138.727 147.628 138.828C147.681 138.929 147.708 139.045 147.708 139.176C147.708 139.309 147.686 139.428 147.644 139.532C147.604 139.633 147.542 139.719 147.46 139.788C147.38 139.857 147.282 139.911 147.168 139.948C147.053 139.983 146.922 140 146.776 140H145.568ZM146 139.584H146.752C146.861 139.584 146.953 139.568 147.028 139.536C147.105 139.504 147.164 139.457 147.204 139.396C147.246 139.332 147.268 139.256 147.268 139.168C147.268 139.085 147.245 139.015 147.2 138.956C147.157 138.897 147.096 138.853 147.016 138.824C146.936 138.792 146.841 138.776 146.732 138.776H146V139.584ZM146 138.36H146.712C146.792 138.36 146.862 138.344 146.924 138.312C146.988 138.28 147.037 138.236 147.072 138.18C147.109 138.124 147.128 138.06 147.128 137.988C147.128 137.868 147.088 137.776 147.008 137.712C146.928 137.648 146.813 137.616 146.664 137.616H146V138.36ZM148.949 140V138.604L148.977 138.8L147.845 137.2H148.365L149.229 138.44L149.129 138.428L149.909 137.2H150.405L149.321 138.844L149.381 138.572V140H148.949ZM152.59 140.04C152.5 140.04 152.413 140.028 152.33 140.004C152.248 139.98 152.17 139.945 152.098 139.9C152.029 139.855 151.966 139.801 151.91 139.74C151.854 139.676 151.806 139.607 151.766 139.532L152.038 139.248C152.094 139.328 152.145 139.392 152.19 139.44C152.238 139.488 152.284 139.525 152.326 139.552C152.369 139.579 152.412 139.597 152.454 139.608C152.497 139.616 152.542 139.62 152.59 139.62C152.686 139.62 152.77 139.599 152.842 139.556C152.914 139.511 152.97 139.449 153.01 139.372C153.05 139.295 153.07 139.207 153.07 139.108V137.6H152.558V137.2H153.934V137.6H153.502V139.148C153.502 139.276 153.48 139.395 153.434 139.504C153.392 139.611 153.329 139.704 153.246 139.784C153.166 139.864 153.07 139.927 152.958 139.972C152.849 140.017 152.726 140.04 152.59 140.04ZM154.525 140V137.2H156.289V137.616H154.957V139.584H156.289V140H154.525ZM154.721 138.772V138.356H156.069V138.772H154.721ZM156.982 140V137.2H158.174C158.334 137.2 158.481 137.24 158.614 137.32C158.75 137.397 158.858 137.504 158.938 137.64C159.018 137.773 159.058 137.924 159.058 138.092C159.058 138.244 159.018 138.385 158.938 138.516C158.858 138.647 158.751 138.752 158.618 138.832C158.485 138.909 158.337 138.948 158.174 138.948H157.414V140H156.982ZM158.646 140L157.934 138.736L158.378 138.636L159.17 140.004L158.646 140ZM157.414 138.532H158.214C158.291 138.532 158.361 138.513 158.422 138.476C158.483 138.436 158.531 138.383 158.566 138.316C158.601 138.247 158.618 138.171 158.618 138.088C158.618 137.995 158.595 137.913 158.55 137.844C158.507 137.772 158.446 137.716 158.366 137.676C158.289 137.636 158.201 137.616 158.102 137.616H157.414V138.532ZM160.896 140.04C160.699 140.04 160.516 140.004 160.348 139.932C160.183 139.86 160.037 139.76 159.912 139.632C159.789 139.501 159.693 139.349 159.624 139.176C159.557 139 159.524 138.808 159.524 138.6C159.524 138.392 159.557 138.201 159.624 138.028C159.693 137.852 159.789 137.7 159.912 137.572C160.037 137.441 160.183 137.34 160.348 137.268C160.516 137.196 160.699 137.16 160.896 137.16C161.093 137.16 161.275 137.196 161.44 137.268C161.608 137.34 161.753 137.441 161.876 137.572C162.001 137.703 162.097 137.856 162.164 138.032C162.233 138.205 162.268 138.395 162.268 138.6C162.268 138.805 162.233 138.996 162.164 139.172C162.097 139.345 162.001 139.497 161.876 139.628C161.753 139.759 161.608 139.86 161.44 139.932C161.275 140.004 161.093 140.04 160.896 140.04ZM160.896 139.62C161.032 139.62 161.156 139.595 161.268 139.544C161.383 139.493 161.481 139.423 161.564 139.332C161.647 139.239 161.711 139.131 161.756 139.008C161.804 138.883 161.828 138.747 161.828 138.6C161.828 138.453 161.804 138.319 161.756 138.196C161.711 138.071 161.647 137.963 161.564 137.872C161.481 137.779 161.383 137.707 161.268 137.656C161.156 137.605 161.032 137.58 160.896 137.58C160.76 137.58 160.635 137.605 160.52 137.656C160.408 137.707 160.309 137.777 160.224 137.868C160.141 137.959 160.077 138.067 160.032 138.192C159.987 138.315 159.964 138.451 159.964 138.6C159.964 138.747 159.987 138.883 160.032 139.008C160.077 139.133 160.141 139.241 160.224 139.332C160.309 139.423 160.408 139.493 160.52 139.544C160.635 139.595 160.76 139.62 160.896 139.62ZM162.853 140V137.2H163.277L164.297 138.86L164.093 138.856L165.125 137.2H165.525V140H165.093V138.852C165.093 138.612 165.098 138.396 165.109 138.204C165.122 138.012 165.144 137.821 165.173 137.632L165.229 137.78L164.313 139.196H164.049L163.161 137.796L163.205 137.632C163.234 137.811 163.254 137.995 163.265 138.184C163.278 138.371 163.285 138.593 163.285 138.852V140H162.853ZM166.31 140V137.2H168.074V137.616H166.742V139.584H168.074V140H166.31ZM166.506 138.772V138.356H167.854V138.772H166.506ZM170.52 140.04C170.429 140.04 170.343 140.028 170.26 140.004C170.177 139.98 170.1 139.945 170.028 139.9C169.959 139.855 169.896 139.801 169.84 139.74C169.784 139.676 169.736 139.607 169.696 139.532L169.968 139.248C170.024 139.328 170.075 139.392 170.12 139.44C170.168 139.488 170.213 139.525 170.256 139.552C170.299 139.579 170.341 139.597 170.384 139.608C170.427 139.616 170.472 139.62 170.52 139.62C170.616 139.62 170.7 139.599 170.772 139.556C170.844 139.511 170.9 139.449 170.94 139.372C170.98 139.295 171 139.207 171 139.108V137.6H170.488V137.2H171.864V137.6H171.432V139.148C171.432 139.276 171.409 139.395 171.364 139.504C171.321 139.611 171.259 139.704 171.176 139.784C171.096 139.864 171 139.927 170.888 139.972C170.779 140.017 170.656 140.04 170.52 140.04ZM173.505 140.04C173.308 140.04 173.125 140.004 172.957 139.932C172.792 139.86 172.647 139.76 172.521 139.632C172.399 139.501 172.303 139.349 172.233 139.176C172.167 139 172.133 138.808 172.133 138.6C172.133 138.392 172.167 138.201 172.233 138.028C172.303 137.852 172.399 137.7 172.521 137.572C172.647 137.441 172.792 137.34 172.957 137.268C173.125 137.196 173.308 137.16 173.505 137.16C173.703 137.16 173.884 137.196 174.049 137.268C174.217 137.34 174.363 137.441 174.485 137.572C174.611 137.703 174.707 137.856 174.773 138.032C174.843 138.205 174.877 138.395 174.877 138.6C174.877 138.805 174.843 138.996 174.773 139.172C174.707 139.345 174.611 139.497 174.485 139.628C174.363 139.759 174.217 139.86 174.049 139.932C173.884 140.004 173.703 140.04 173.505 140.04ZM173.505 139.62C173.641 139.62 173.765 139.595 173.877 139.544C173.992 139.493 174.091 139.423 174.173 139.332C174.256 139.239 174.32 139.131 174.365 139.008C174.413 138.883 174.437 138.747 174.437 138.6C174.437 138.453 174.413 138.319 174.365 138.196C174.32 138.071 174.256 137.963 174.173 137.872C174.091 137.779 173.992 137.707 173.877 137.656C173.765 137.605 173.641 137.58 173.505 137.58C173.369 137.58 173.244 137.605 173.129 137.656C173.017 137.707 172.919 137.777 172.833 137.868C172.751 137.959 172.687 138.067 172.641 138.192C172.596 138.315 172.573 138.451 172.573 138.6C172.573 138.747 172.596 138.883 172.641 139.008C172.687 139.133 172.751 139.241 172.833 139.332C172.919 139.423 173.017 139.493 173.129 139.544C173.244 139.595 173.369 139.62 173.505 139.62ZM177.29 140V137.2H177.722V140H177.29ZM175.462 140V137.2H175.894V140H175.462ZM175.65 138.812V138.396H177.482V138.812H175.65Z" fill="black"/>
<path d="M106.24 166V165.684L107.836 163.548L107.896 163.616H106.344V163.2H108.372V163.512L106.784 165.652L106.72 165.584H108.416V166H106.24ZM110.857 166V163.2H111.289V166H110.857ZM109.029 166V163.2H109.461V166H109.029ZM109.217 164.812V164.396H111.049V164.812H109.217ZM111.78 166L112.864 163.2H113.304L114.38 166H113.92L113.28 164.312C113.272 164.293 113.256 164.248 113.232 164.176C113.21 164.104 113.185 164.024 113.156 163.936C113.126 163.848 113.1 163.768 113.076 163.696C113.052 163.621 113.036 163.573 113.028 163.552L113.12 163.548C113.104 163.593 113.084 163.651 113.06 163.72C113.038 163.789 113.014 163.863 112.988 163.94C112.964 164.017 112.94 164.091 112.916 164.16C112.892 164.227 112.872 164.283 112.856 164.328L112.22 166H111.78ZM112.26 165.304L112.42 164.888H113.692L113.876 165.304H112.26ZM115.966 166.04C115.769 166.04 115.586 166.004 115.418 165.932C115.253 165.86 115.108 165.76 114.982 165.632C114.86 165.501 114.764 165.349 114.694 165.176C114.628 165 114.594 164.808 114.594 164.6C114.594 164.392 114.628 164.201 114.694 164.028C114.764 163.852 114.86 163.7 114.982 163.572C115.108 163.441 115.253 163.34 115.418 163.268C115.586 163.196 115.769 163.16 115.966 163.16C116.164 163.16 116.345 163.196 116.51 163.268C116.678 163.34 116.824 163.441 116.946 163.572C117.072 163.703 117.168 163.856 117.234 164.032C117.304 164.205 117.338 164.395 117.338 164.6C117.338 164.805 117.304 164.996 117.234 165.172C117.168 165.345 117.072 165.497 116.946 165.628C116.824 165.759 116.678 165.86 116.51 165.932C116.345 166.004 116.164 166.04 115.966 166.04ZM115.966 165.62C116.102 165.62 116.226 165.595 116.338 165.544C116.453 165.493 116.552 165.423 116.634 165.332C116.717 165.239 116.781 165.131 116.826 165.008C116.874 164.883 116.898 164.747 116.898 164.6C116.898 164.453 116.874 164.319 116.826 164.196C116.781 164.071 116.717 163.963 116.634 163.872C116.552 163.779 116.453 163.707 116.338 163.656C116.226 163.605 116.102 163.58 115.966 163.58C115.83 163.58 115.705 163.605 115.59 163.656C115.478 163.707 115.38 163.777 115.294 163.868C115.212 163.959 115.148 164.067 115.102 164.192C115.057 164.315 115.034 164.451 115.034 164.6C115.034 164.747 115.057 164.883 115.102 165.008C115.148 165.133 115.212 165.241 115.294 165.332C115.38 165.423 115.478 165.493 115.59 165.544C115.705 165.595 115.83 165.62 115.966 165.62Z" fill="black"/>
<path d="M193.144 166V164.604L193.172 164.8L192.04 163.2H192.56L193.424 164.44L193.324 164.428L194.104 163.2H194.6L193.516 164.844L193.576 164.572V166H193.144ZM196.082 166.024C195.866 166.024 195.672 165.977 195.502 165.884C195.331 165.788 195.196 165.657 195.098 165.492C195.002 165.324 194.954 165.135 194.954 164.924V163.196H195.386V164.888C195.386 165.024 195.418 165.147 195.482 165.256C195.546 165.363 195.63 165.448 195.734 165.512C195.84 165.576 195.956 165.608 196.082 165.608C196.215 165.608 196.335 165.576 196.442 165.512C196.551 165.448 196.638 165.363 196.702 165.256C196.766 165.147 196.798 165.024 196.798 164.888V163.196H197.21V164.924C197.21 165.135 197.16 165.324 197.062 165.492C196.966 165.657 196.832 165.788 196.662 165.884C196.491 165.977 196.298 166.024 196.082 166.024ZM192.392 171V168.2H194.156V168.616H192.824V170.584H194.156V171H192.392ZM192.588 169.772V169.356H193.936V169.772H192.588Z" fill="black"/>
<path d="M194.423 194.368C194.571 194.15 194.754 194.016 194.97 193.967C195.193 193.921 195.433 193.964 195.689 194.096C195.924 194.217 196.073 194.378 196.137 194.581C196.201 194.784 196.163 194.987 196.023 195.192C195.874 195.41 195.688 195.542 195.465 195.588C195.249 195.638 195.013 195.596 194.757 195.465C194.522 195.344 194.373 195.182 194.309 194.98C194.245 194.777 194.283 194.573 194.423 194.368Z" fill="#F2F3F2"/>
<path d="M188.973 199.143C189.134 198.982 189.307 198.849 189.493 198.747C189.677 198.646 189.873 198.576 190.082 198.534C190.291 198.498 190.511 198.49 190.742 198.511L190.837 199.132C190.475 199.103 190.187 199.119 189.974 199.182C189.761 199.245 189.566 199.364 189.392 199.54C189.284 199.648 189.206 199.76 189.157 199.877C189.108 199.993 189.092 200.102 189.108 200.204C189.124 200.306 189.176 200.389 189.262 200.454C189.32 200.497 189.382 200.529 189.45 200.551C189.519 200.572 189.592 200.58 189.67 200.574C189.745 200.572 189.829 200.555 189.92 200.525C190.009 200.497 190.103 200.456 190.202 200.402C190.304 200.35 190.413 200.283 190.528 200.201C190.715 200.074 190.894 199.976 191.065 199.906C191.235 199.835 191.402 199.794 191.564 199.783C191.727 199.771 191.881 199.788 192.026 199.833C192.174 199.88 192.318 199.955 192.455 200.058C192.589 200.159 192.689 200.279 192.753 200.416C192.814 200.557 192.842 200.703 192.834 200.857C192.828 201.015 192.785 201.174 192.705 201.332C192.629 201.493 192.519 201.646 192.375 201.79C192.223 201.943 192.061 202.067 191.889 202.161C191.717 202.255 191.537 202.318 191.349 202.35C191.164 202.384 190.975 202.386 190.782 202.355L190.744 201.761C190.906 201.784 191.058 201.786 191.198 201.768C191.343 201.752 191.474 201.715 191.594 201.657C191.717 201.6 191.827 201.524 191.923 201.428C192.033 201.317 192.109 201.206 192.153 201.095C192.196 200.984 192.207 200.878 192.184 200.777C192.162 200.681 192.105 200.598 192.012 200.529C191.945 200.478 191.872 200.443 191.791 200.422C191.715 200.404 191.631 200.401 191.541 200.412C191.452 200.429 191.35 200.464 191.236 200.517C191.125 200.573 191.001 200.646 190.866 200.737C190.672 200.865 190.485 200.966 190.302 201.042C190.124 201.121 189.952 201.173 189.787 201.198C189.623 201.223 189.47 201.219 189.328 201.187C189.184 201.158 189.054 201.1 188.939 201.014C188.725 200.853 188.583 200.67 188.514 200.464C188.445 200.258 188.448 200.042 188.522 199.816C188.6 199.591 188.75 199.367 188.973 199.143Z" fill="#F2F3F2"/>
<path d="M184.158 203.537L186.962 206.664L186.435 207.021L183.507 206.025L183.764 205.858L184.141 208.576L183.644 208.912L180.84 205.785L181.377 205.422L182.526 206.704C182.766 206.972 182.976 207.218 183.155 207.441C183.331 207.667 183.495 207.898 183.648 208.134L183.431 208.016L183.15 205.663L183.478 205.441L185.983 206.258L186.092 206.478C185.877 206.303 185.668 206.114 185.465 205.912C185.262 205.715 185.03 205.472 184.771 205.183L183.622 203.901L184.158 203.537Z" fill="#F2F3F2"/>
<path d="M175.672 208.695L176.21 212.996L175.601 213.251L172.075 210.202L172.711 209.936L174.825 211.779C174.85 211.798 174.905 211.849 174.99 211.929C175.072 212.011 175.165 212.101 175.27 212.2C175.375 212.298 175.47 212.388 175.555 212.468C175.643 212.552 175.7 212.606 175.727 212.629L175.602 212.688C175.591 212.619 175.577 212.532 175.56 212.427C175.539 212.324 175.519 212.214 175.5 212.097C175.476 211.982 175.456 211.872 175.439 211.767C175.424 211.665 175.411 211.58 175.4 211.512L175.063 208.95L175.672 208.695ZM175.514 209.886L175.595 210.524L173.836 211.262L173.279 210.823L175.514 209.886Z" fill="#F2F3F2"/>
<path d="M166.923 211.921L168.071 215.961L166.323 216.336C166.089 216.387 165.857 216.375 165.629 216.302C165.398 216.233 165.195 216.113 165.022 215.942C164.85 215.775 164.73 215.57 164.661 215.328C164.599 215.108 164.599 214.892 164.663 214.678C164.727 214.464 164.84 214.279 165.003 214.121C165.166 213.968 165.368 213.865 165.606 213.814L166.721 213.575L166.289 212.057L166.923 211.921ZM164.483 212.445L166.045 214.044L165.435 214.328L163.712 212.604L164.483 212.445ZM166.891 214.175L165.718 214.427C165.605 214.451 165.511 214.5 165.436 214.573C165.363 214.65 165.314 214.742 165.291 214.849C165.268 214.96 165.274 215.075 165.308 215.195C165.346 215.329 165.413 215.44 165.508 215.525C165.6 215.616 165.713 215.677 165.846 215.71C165.976 215.743 166.114 215.744 166.258 215.713L167.267 215.496L166.891 214.175Z" fill="#F2F3F2"/>
<path d="M157.152 213.479L157.311 217.051L158.486 217.012L158.514 217.635L155.48 217.737L155.452 217.114L156.663 217.073L156.504 213.501L157.152 213.479Z" fill="#F2F3F2"/>
<path d="M150.71 213.507L150.612 214.099L149.94 214.015L149.449 216.974L150.121 217.059L150.023 217.651L148.035 217.401L148.133 216.81L148.806 216.894L149.297 213.934L148.624 213.85L148.722 213.258L150.71 213.507Z" fill="#F2F3F2"/>
<path d="M142.48 212.109C142.698 212.176 142.889 212.267 143.054 212.38C143.214 212.493 143.348 212.628 143.455 212.786C143.557 212.947 143.633 213.129 143.683 213.333L143.066 213.673C142.985 213.356 142.879 213.121 142.748 212.968C142.617 212.814 142.433 212.701 142.196 212.628C142.051 212.583 141.91 212.564 141.773 212.572C141.637 212.579 141.518 212.611 141.417 212.668C141.317 212.724 141.246 212.802 141.205 212.902C141.178 212.969 141.163 213.035 141.162 213.101C141.161 213.168 141.175 213.233 141.205 213.296C141.231 213.359 141.274 213.422 141.333 213.486C141.389 213.549 141.461 213.611 141.548 213.672C141.634 213.736 141.737 213.799 141.858 213.862C142.047 213.966 142.205 214.076 142.33 214.19C142.456 214.304 142.55 214.427 142.612 214.558C142.674 214.69 142.704 214.827 142.702 214.968C142.699 215.113 142.664 215.265 142.599 215.424C142.535 215.58 142.442 215.713 142.318 215.825C142.191 215.936 142.046 216.02 141.885 216.079C141.718 216.14 141.539 216.17 141.35 216.169C141.159 216.173 140.966 216.144 140.771 216.084C140.565 216.02 140.387 215.935 140.236 215.83C140.085 215.725 139.964 215.6 139.873 215.455C139.78 215.314 139.72 215.155 139.693 214.98L140.3 214.699C140.326 214.845 140.37 214.973 140.432 215.084C140.493 215.199 140.572 215.294 140.67 215.37C140.766 215.45 140.88 215.511 141.009 215.551C141.158 215.597 141.298 215.615 141.427 215.605C141.556 215.595 141.669 215.559 141.768 215.498C141.861 215.439 141.929 215.356 141.973 215.249C142.005 215.171 142.019 215.094 142.016 215.018C142.011 214.946 141.989 214.874 141.949 214.804C141.904 214.735 141.836 214.664 141.746 214.59C141.654 214.52 141.54 214.447 141.403 214.371C141.211 214.262 141.047 214.146 140.912 214.025C140.775 213.908 140.668 213.785 140.592 213.657C140.515 213.529 140.472 213.398 140.461 213.266C140.447 213.132 140.468 212.999 140.522 212.866C140.624 212.618 140.771 212.421 140.964 212.277C141.157 212.132 141.383 212.044 141.642 212.011C141.899 211.983 142.178 212.015 142.48 212.109Z" fill="#F2F3F2"/>
<path d="M136.312 210.305L132.426 212.931L131.846 212.614L132.888 208.436L133.494 208.767L132.854 211.279C132.849 211.308 132.83 211.375 132.798 211.479C132.763 211.582 132.726 211.698 132.687 211.826C132.649 211.954 132.614 212.07 132.582 212.175C132.548 212.283 132.527 212.353 132.519 212.385L132.394 212.323C132.455 212.28 132.532 212.225 132.624 212.157C132.713 212.088 132.809 212.017 132.912 211.942C133.012 211.865 133.108 211.793 133.2 211.726C133.29 211.662 133.366 211.608 133.427 211.565L135.733 209.989L136.312 210.305ZM135.069 210.806L134.493 211.197L132.818 210.283L132.941 209.645L135.069 210.806Z" fill="#F2F3F2"/>
<path d="M128.031 205.713L124.885 208.495L124.443 208.117L125.065 204.172L125.179 204.198C125.116 204.275 125.046 204.355 124.968 204.44C124.887 204.527 124.802 204.619 124.712 204.714C124.616 204.809 124.516 204.908 124.411 205.012C124.301 205.115 124.185 205.222 124.066 205.334C123.946 205.445 123.82 205.559 123.688 205.675L122.654 206.59L122.162 206.169L125.308 203.386L125.759 203.772L125.199 207.607L125.086 207.62C125.254 207.445 125.397 207.297 125.517 207.175C125.631 207.053 125.729 206.95 125.813 206.866C125.891 206.781 125.957 206.712 126.011 206.659C126.061 206.609 126.105 206.568 126.141 206.536C126.174 206.502 126.204 206.472 126.231 206.449L127.538 205.292L128.031 205.713Z" fill="#F2F3F2"/>
<path d="M118.17 197.683C118.336 197.888 118.4 198.086 118.361 198.277C118.315 198.473 118.17 198.646 117.924 198.796C117.699 198.934 117.467 198.988 117.228 198.958C116.989 198.927 116.792 198.816 116.635 198.623C116.469 198.418 116.409 198.218 116.455 198.022C116.494 197.831 116.636 197.66 116.881 197.51C117.106 197.372 117.339 197.318 117.577 197.349C117.816 197.379 118.014 197.49 118.17 197.683Z" fill="#F2F3F2"/>
<defs>
<filter id="filter0_d_0_1" x="0" y="2" width="414" height="314" filterUnits="userSpaceOnUse" color-interpolation-filters="sRGB">
<feFlood flood-opacity="0" result="BackgroundImageFix"/>
<feColorMatrix in="SourceAlpha" type="matrix" values="0 0 0 0 0 0 0 0 0 0 0 0 0 0 0 0 0 0 127 0" result="hardAlpha"/>
<feMorphology radius="3" operator="dilate" in="SourceAlpha" result="effect1_dropShadow_0_1"/>
<feOffset dx="1" dy="2"/>
<feGaussianBlur stdDeviation="2"/>
<feComposite in2="hardAlpha" operator="out"/>
<feColorMatrix type="matrix" values="0 0 0 0 0 0 0 0 0 0 0 0 0 0 0 0 0 0 0.21 0"/>
<feBlend mode="normal" in2="BackgroundImageFix" result="effect1_dropShadow_0_1"/>
<feBlend mode="normal" in="SourceGraphic" in2="effect1_dropShadow_0_1" result="shape"/>
</filter>
<filter id="filter1_d_0_1" x="310" y="30" width="62" height="62" filterUnits="userSpaceOnUse" color-interpolation-filters="sRGB">
<feFlood flood-opacity="0" result="BackgroundImageFix"/>
<feColorMatrix in="SourceAlpha" type="matrix" values="0 0 0 0 0 0 0 0 0 0 0 0 0 0 0 0 0 0 127 0" result="hardAlpha"/>
<feOffset dx="2" dy="2"/>
<feGaussianBlur stdDeviation="2"/>
<feComposite in2="hardAlpha" operator="out"/>
<feColorMatrix type="matrix" values="0 0 0 0 0 0 0 0 0 0 0 0 0 0 0 0 0 0 0.17 0"/>
<feBlend mode="normal" in2="BackgroundImageFix" result="effect1_dropShadow_0_1"/>
<feBlend mode="normal" in="SourceGraphic" in2="effect1_dropShadow_0_1" result="shape"/>
</filter>
<filter id="filter2_d_0_1" x="307.499" y="0.5" width="55.0016" height="280.001" filterUnits="userSpaceOnUse" color-interpolation-filters="sRGB">
<feFlood flood-opacity="0" result="BackgroundImageFix"/>
<feColorMatrix in="SourceAlpha" type="matrix" values="0 0 0 0 0 0 0 0 0 0 0 0 0 0 0 0 0 0 127 0" result="hardAlpha"/>
<feOffset dy="4"/>
<feGaussianBlur stdDeviation="2"/>
<feComposite in2="hardAlpha" operator="out"/>
<feColorMatrix type="matrix" values="0 0 0 0 0 0 0 0 0 0 0 0 0 0 0 0 0 0 0.25 0"/>
<feBlend mode="normal" in2="BackgroundImageFix" result="effect1_dropShadow_0_1"/>
<feBlend mode="normal" in="SourceGraphic" in2="effect1_dropShadow_0_1" result="shape"/>
</filter>
<filter id="filter3_d_0_1" x="310" y="5" width="44.0004" height="269" filterUnits="userSpaceOnUse" color-interpolation-filters="sRGB">
<feFlood flood-opacity="0" result="BackgroundImageFix"/>
<feColorMatrix in="SourceAlpha" type="matrix" values="0 0 0 0 0 0 0 0 0 0 0 0 0 0 0 0 0 0 127 0" result="hardAlpha"/>
<feOffset dy="4"/>
<feGaussianBlur stdDeviation="2"/>
<feComposite in2="hardAlpha" operator="out"/>
<feColorMatrix type="matrix" values="0 0 0 0 0 0 0 0 0 0 0 0 0 0 0 0 0 0 0.25 0"/>
<feBlend mode="normal" in2="BackgroundImageFix" result="effect1_dropShadow_0_1"/>
<feBlend mode="normal" in="SourceGraphic" in2="effect1_dropShadow_0_1" result="shape"/>
</filter>
<filter id="filter4_d_0_1" x="313.5" y="6.5" width="47.0001" height="275" filterUnits="userSpaceOnUse" color-interpolation-filters="sRGB">
<feFlood flood-opacity="0" result="BackgroundImageFix"/>
<feColorMatrix in="SourceAlpha" type="matrix" values="0 0 0 0 0 0 0 0 0 0 0 0 0 0 0 0 0 0 127 0" result="hardAlpha"/>
<feOffset dy="4"/>
<feGaussianBlur stdDeviation="2"/>
<feComposite in2="hardAlpha" operator="out"/>
<feColorMatrix type="matrix" values="0 0 0 0 0 0 0 0 0 0 0 0 0 0 0 0 0 0 0.25 0"/>
<feBlend mode="normal" in2="BackgroundImageFix" result="effect1_dropShadow_0_1"/>
<feBlend mode="normal" in="SourceGraphic" in2="effect1_dropShadow_0_1" result="shape"/>
</filter>
<filter id="filter5_dd_0_1" x="229.027" y="253.345" width="84.0084" height="70.6296" filterUnits="userSpaceOnUse" color-interpolation-filters="sRGB">
<feFlood flood-opacity="0" result="BackgroundImageFix"/>
<feColorMatrix in="SourceAlpha" type="matrix" values="0 0 0 0 0 0 0 0 0 0 0 0 0 0 0 0 0 0 127 0" result="hardAlpha"/>
<feOffset dx="-2" dy="-2"/>
<feGaussianBlur stdDeviation="2"/>
<feComposite in2="hardAlpha" operator="out"/>
<feColorMatrix type="matrix" values="0 0 0 0 0 0 0 0 0 0 0 0 0 0 0 0 0 0 0.25 0"/>
<feBlend mode="normal" in2="BackgroundImageFix" result="effect1_dropShadow_0_1"/>
<feColorMatrix in="SourceAlpha" type="matrix" values="0 0 0 0 0 0 0 0 0 0 0 0 0 0 0 0 0 0 127 0" result="hardAlpha"/>
<feOffset dy="4"/>
<feGaussianBlur stdDeviation="2"/>
<feComposite in2="hardAlpha" operator="out"/>
<feColorMatrix type="matrix" values="0 0 0 0 0 0 0 0 0 0 0 0 0 0 0 0 0 0 0.25 0"/>
<feBlend mode="normal" in2="effect1_dropShadow_0_1" result="effect2_dropShadow_0_1"/>
<feBlend mode="normal" in="SourceGraphic" in2="effect2_dropShadow_0_1" result="shape"/>
</filter>
<filter id="filter6_d_0_1" x="318" y="42" width="42" height="42" filterUnits="userSpaceOnUse" color-interpolation-filters="sRGB">
<feFlood flood-opacity="0" result="BackgroundImageFix"/>
<feColorMatrix in="SourceAlpha" type="matrix" values="0 0 0 0 0 0 0 0 0 0 0 0 0 0 0 0 0 0 127 0" result="hardAlpha"/>
<feOffset dy="4"/>
<feGaussianBlur stdDeviation="2"/>
<feComposite in2="hardAlpha" operator="out"/>
<feColorMatrix type="matrix" values="0 0 0 0 0 0 0 0 0 0 0 0 0 0 0 0 0 0 0.25 0"/>
<feBlend mode="normal" in2="BackgroundImageFix" result="effect1_dropShadow_0_1"/>
<feBlend mode="normal" in="SourceGraphic" in2="effect1_dropShadow_0_1" result="shape"/>
</filter>
<filter id="filter7_i_0_1" x="22" y="30" width="265" height="269" filterUnits="userSpaceOnUse" color-interpolation-filters="sRGB">
<feFlood flood-opacity="0" result="BackgroundImageFix"/>
<feBlend mode="normal" in="SourceGraphic" in2="BackgroundImageFix" result="shape"/>
<feColorMatrix in="SourceAlpha" type="matrix" values="0 0 0 0 0 0 0 0 0 0 0 0 0 0 0 0 0 0 127 0" result="hardAlpha"/>
<feOffset dy="4"/>
<feGaussianBlur stdDeviation="2"/>
<feComposite in2="hardAlpha" operator="arithmetic" k2="-1" k3="1"/>
<feColorMatrix type="matrix" values="0 0 0 0 0.175 0 0 0 0 0.158958 0 0 0 0 0.158958 0 0 0 0.25 0"/>
<feBlend mode="normal" in2="shape" result="effect1_innerShadow_0_1"/>
</filter>
</defs>
</svg>
